<?xml version="1.0" encoding="UTF-8"?><svg id="Layer_2" xmlns="http://www.w3.org/2000/svg" viewBox="0 0 825.38 319.14"><defs><style>.cls-1{fill:#050517;}</style></defs><g id="Layer_1-2"><path class="cls-1" d="M.29,129.43c-.39-.51-.39-.96,0-1.35l11.92-19.32c.64-1.03,1.28-1.09,1.93-.2,1.93,2.57,4.12,4.94,6.58,7.12,2.45,2.18,5.53,3.27,9.27,3.26,4.5-.01,8-1.43,10.51-4.27,2.5-2.83,4.07-6.25,4.7-10.24,.38-3.09-.3-6.2-2.05-9.35-1.74-3.15-4.07-6.45-6.97-9.92-2.9-3.47-6.03-7.03-9.38-10.69-3.35-3.66-6.45-7.44-9.29-11.36-2.84-3.91-5.07-8.03-6.69-12.33-1.62-4.3-2.11-8.77-1.48-13.41,1.64-11.45,6.28-20.47,13.92-27.04C30.9,3.76,40.32,.46,51.51,.43c6.17-.01,11.19,.78,15.05,2.38,3.86,1.6,7.92,4.07,12.17,7.4,.51,.51,.58,1.03,.2,1.54l-11.92,19.51c-.51,.9-1.09,.9-1.74,0-2.07-2.44-4.29-4.81-6.67-7.12-2.39-2.31-5.44-3.46-9.17-3.45-4.5,.01-8.04,1.47-10.6,4.37-2.57,2.9-4.17,6.35-4.8,10.33-.38,2.7,.37,5.53,2.24,8.48,1.87,2.96,4.26,6.1,7.16,9.44,2.9,3.34,6.06,6.83,9.48,10.49,3.41,3.66,6.51,7.54,9.29,11.65,2.77,4.11,4.97,8.41,6.59,12.91,1.62,4.5,2.11,9.19,1.48,14.08-1.65,11.45-6.29,20.46-13.92,27.04-7.64,6.58-17.05,9.88-28.24,9.9-5.4,.01-10.45-.78-15.15-2.38-4.7-1.6-8.92-4.13-12.65-7.59Zm116.16,9.77c-6.95,.02-12.96-1.55-18.05-4.69-5.09-3.14-9.15-7.66-12.19-13.57-3.04-5.91-4.95-13.17-5.74-21.79-.79-8.61-.43-18.39,1.09-29.33,1.52-10.93,3.87-20.72,7.07-29.34,3.19-8.62,7.1-15.9,11.72-21.83,4.62-5.93,9.91-10.47,15.88-13.64,5.97-3.16,12.43-4.75,19.38-4.77,7.07-.02,13.15,1.55,18.24,4.68,5.09,3.14,9.15,7.7,12.19,13.67,3.03,5.97,4.95,13.24,5.74,21.79,.79,8.55,.43,18.3-1.09,29.23-1.52,10.94-3.88,20.69-7.07,29.25-3.2,8.56-7.1,15.84-11.72,21.83-4.62,5.99-9.91,10.57-15.89,13.73-5.97,3.16-12.5,4.76-19.57,4.77Zm3.04-20.46c2.96,0,5.82-1.23,8.58-3.69,2.76-2.45,5.29-5.83,7.6-10.15,2.3-4.31,4.38-9.49,6.23-15.54,1.85-6.05,3.22-12.61,4.1-19.69,1.01-7.2,1.44-13.83,1.3-19.87-.14-6.04-.8-11.22-1.96-15.53-1.17-4.3-2.79-7.68-4.85-10.12-2.07-2.44-4.58-3.66-7.53-3.65-2.83,0-5.66,1.24-8.48,3.69-2.83,2.45-5.42,5.9-7.79,10.34-2.37,4.44-4.48,9.69-6.33,15.74-1.85,6.05-3.28,12.68-4.3,19.88-.88,7.08-1.26,13.57-1.11,19.49,.14,5.92,.83,11.03,2.06,15.33,1.23,4.31,2.91,7.68,5.04,10.12,2.13,2.44,4.6,3.66,7.44,3.65Zm114.19-8.18c.9-.9,1.54-.78,1.93,.38l6.6,16.58c.26,.51,.13,.96-.38,1.35-4.5,3.61-8.89,6.19-13.2,7.75-4.31,1.55-9.1,2.34-14.37,2.35-14.41,.03-24.74-6.02-31.01-18.16-6.27-12.14-7.88-29.21-4.84-51.21,1.52-11.06,3.91-20.87,7.17-29.44,3.26-8.56,7.26-15.84,12.01-21.83,4.74-5.99,10.17-10.54,16.27-13.64C219.96,1.58,226.68,.02,234.01,0c4.63-.01,9,.78,13.12,2.38,4.12,1.6,7.85,4.07,11.21,7.4,.51,.38,.51,.84,0,1.35l-11.15,16.81c-.64,.77-1.29,.84-1.93,.2-2.71-3.08-5.32-5.16-7.83-6.25-2.51-1.09-4.92-1.63-7.24-1.62-2.96,0-5.88,1.24-8.77,3.69-2.89,2.45-5.52,5.83-7.89,10.15-2.37,4.32-4.48,9.5-6.33,15.55-1.85,6.05-3.28,12.68-4.29,19.88-1.01,7.21-1.41,13.8-1.21,19.78,.2,5.98,.92,11.16,2.16,15.53,1.23,4.37,2.94,7.74,5.14,10.12,2.19,2.38,4.83,3.56,7.92,3.55,5.27-.01,10.86-2.66,16.77-7.95Zm25.72,26.37c-1.03,0-1.42-.45-1.16-1.35L276.66,2.6c.25-.64,.64-.97,1.15-.97l22.19-.05c1.03,0,1.41,.45,1.16,1.35l-18.41,132.97c-.26,.65-.64,.97-1.15,.97l-22.19,.05Zm50.74-.12c-1.03,0-1.42-.45-1.16-1.35L327.4,2.49c.25-.64,.64-.97,1.15-.97l53.06-.12c1.03,0,1.41,.45,1.16,1.35l-2.46,18.14c-.26,.65-.64,.97-1.16,.97l-29.9,.07-3.22,23.35,24.7-.06c1.03,0,1.41,.45,1.16,1.35l-2.47,18.14c-.26,.65-.64,.97-1.15,.97l-25.08,.06-7.02,50.76,29.52-.07c1.03,0,1.41,.45,1.16,1.35l-2.47,17.95c-.26,.65-.64,.97-1.16,.97l-53.06,.12Zm92.8-.21c-1.03,0-1.42-.45-1.16-1.35l15.75-113.48-25.27,.06c-1.03,0-1.42-.45-1.16-1.35l2.47-18.14c.25-.64,.64-.97,1.15-.97l75.82-.18c1.03,0,1.41,.45,1.16,1.35l-2.47,18.14c-.26,.65-.64,.97-1.16,.97l-26.05,.06-15.75,113.86c-.26,.65-.64,.97-1.15,.97l-22.19,.05Zm82.18-.19c-.13,0-.07-1.22,.18-3.67,.25-2.44,.6-5.53,1.04-9.26,.44-3.73,.91-7.78,1.42-12.16,.5-4.37,1.01-8.42,1.52-12.16,.5-3.73,.88-6.85,1.14-9.36,.25-2.51,.38-3.83,.38-3.96L478.84,2.52c-.26-.9,.12-1.35,1.16-1.35l20.64-.05c.51,0,.9,.32,1.16,.96l5.72,55.16L529,1.83c0-.51,.32-.77,.96-.77l20.26-.05c1.28,0,1.61,.51,.97,1.54l-35.5,84.2-6.64,48.63c-.26,.65-.64,.97-1.15,.97l-22.77,.05Zm105.13,.77c-3.39,0-6.32-.77-8.8-2.31-2.48-1.54-4.46-3.75-5.93-6.64-1.48-2.89-2.4-6.43-2.78-10.64-.38-4.2-.19-8.97,.56-14.31,.75-5.33,1.91-10.1,3.48-14.31,1.57-4.2,3.48-7.75,5.74-10.64,2.26-2.89,4.85-5.1,7.77-6.64,2.92-1.54,6.07-2.31,9.46-2.31s6.42,.77,8.9,2.31c2.48,1.54,4.46,3.77,5.93,6.68,1.47,2.92,2.4,6.46,2.78,10.64,.38,4.17,.19,8.93-.56,14.26-.75,5.33-1.92,10.09-3.48,14.26-1.57,4.17-3.48,7.72-5.74,10.64-2.26,2.92-4.85,5.15-7.77,6.68-2.92,1.54-6.1,2.31-9.55,2.31Zm1.51-9.98c1.44,0,2.84-.6,4.19-1.79,1.35-1.19,2.59-2.84,3.72-4.94,1.13-2.1,2.15-4.63,3.06-7.58,.91-2.95,1.58-6.15,2.02-9.6,.5-3.51,.72-6.74,.66-9.69-.06-2.95-.38-5.47-.94-7.58-.57-2.1-1.35-3.75-2.35-4.94-1.01-1.19-2.23-1.79-3.67-1.79s-2.76,.6-4.14,1.79c-1.38,1.19-2.65,2.87-3.81,5.04-1.16,2.17-2.2,4.72-3.11,7.67-.91,2.95-1.62,6.18-2.12,9.69-.44,3.45-.63,6.62-.56,9.51,.06,2.89,.39,5.38,.99,7.48,.6,2.1,1.41,3.75,2.45,4.94,1.04,1.19,2.24,1.79,3.62,1.79Zm29.18,9.04c-.5,0-.69-.22-.56-.66l9.13-64.86c.12-.31,.31-.47,.56-.47h25.89c.5,0,.69,.22,.56,.66l-1.22,8.85c-.13,.32-.31,.47-.57,.47h-14.59l-2.64,18.64h12.05c.5,0,.69,.22,.56,.66l-1.22,8.75c-.13,.31-.31,.47-.56,.47h-12.24l-3.77,27.01c-.13,.31-.31,.47-.56,.47h-10.83Zm75.31-3.03c-.44,0-.6-.19-.49-.58l6.83-48.39h-10.78c-.44,0-.6-.19-.49-.58l1.07-7.74c.11-.27,.27-.41,.49-.41h32.34c.44,0,.6,.19,.49,.58l-1.07,7.74c-.11,.28-.27,.41-.49,.41h-11.11l-6.83,48.56c-.11,.28-.28,.41-.49,.41h-9.46Zm29.05,0c-.44,0-.6-.19-.49-.58l7.98-56.7c.11-.27,.27-.41,.49-.41h9.46c.44,0,.6,.19,.49,.58l-1.81,12.76h11.11l1.81-12.92c.11-.27,.27-.41,.49-.41h9.46c.44,0,.6,.19,.49,.58l-7.98,56.7c-.11,.28-.27,.41-.49,.41h-9.46c-.44,0-.6-.19-.49-.58l4.94-35.14h-11.11l-4.94,35.31c-.11,.28-.28,.41-.49,.41h-9.46Zm43.21,0c-.44,0-.6-.19-.49-.58l7.98-56.7c.11-.27,.27-.41,.49-.41h22.63c.44,0,.6,.19,.49,.58l-1.07,7.74c-.11,.28-.28,.41-.49,.41h-12.76l-1.4,9.96h10.53c.44,0,.6,.19,.49,.58l-1.07,7.74c-.11,.28-.27,.41-.49,.41h-10.7l-3.05,21.64h12.59c.44,0,.6,.19,.49,.58l-1.07,7.65c-.11,.28-.28,.41-.49,.41h-22.63ZM53.34,308.07c-.42-.56-.42-1.06,0-1.49l13.19-21.28c.71-1.13,1.42-1.2,2.13-.21,2.13,2.84,4.54,5.46,7.23,7.87,2.69,2.41,6.1,3.62,10.21,3.62,4.96,0,8.83-1.56,11.6-4.68,2.77-3.12,4.5-6.88,5.21-11.28,.43-3.4-.32-6.84-2.23-10.32-1.92-3.47-4.47-7.13-7.66-10.96-3.19-3.83-6.63-7.77-10.32-11.81-3.69-4.04-7.1-8.23-10.21-12.55-3.12-4.33-5.57-8.86-7.34-13.62-1.77-4.75-2.31-9.68-1.59-14.79,1.84-12.62,6.98-22.55,15.42-29.79,8.44-7.23,18.83-10.85,31.17-10.85,6.81,0,12.34,.89,16.6,2.66,4.25,1.77,8.72,4.5,13.4,8.19,.57,.57,.64,1.14,.21,1.7l-13.19,21.49c-.57,.99-1.21,.99-1.92,0-2.27-2.69-4.72-5.32-7.34-7.87-2.63-2.55-5.99-3.83-10.11-3.83-4.97,0-8.87,1.6-11.7,4.79-2.84,3.19-4.61,6.99-5.32,11.38-.43,2.98,.39,6.1,2.45,9.36,2.06,3.26,4.68,6.74,7.87,10.43,3.19,3.69,6.66,7.55,10.43,11.6,3.76,4.04,7.16,8.33,10.21,12.87,3.05,4.54,5.46,9.29,7.23,14.26,1.77,4.97,2.3,10.14,1.6,15.53-1.85,12.63-6.99,22.55-15.43,29.79-8.44,7.23-18.83,10.85-31.17,10.85-5.96,0-11.53-.89-16.7-2.66-5.18-1.77-9.82-4.57-13.94-8.41Zm91.49,8.94c-1.14,0-1.56-.5-1.28-1.49l20.64-146.6c.28-.71,.71-1.06,1.28-1.06h31.49c14.18,0,24.47,4.86,30.85,14.58,6.38,9.72,8.37,23.23,5.96,40.53-2.41,17.31-8.19,30.78-17.34,40.43-9.15,9.65-20.82,14.47-35,14.47h-5.53l-5.32,38.09c-.29,.71-.71,1.06-1.28,1.06h-24.47Zm41.92-61.7c4.82,0,9.01-2.91,12.55-8.72,3.54-5.81,6.03-13.69,7.45-23.62,1.41-9.93,1.13-17.84-.85-23.72-1.99-5.88-5.32-8.83-10-8.83h-7.66l-9.15,64.9h7.66Zm53.83,61.7c-1.14,0-1.56-.5-1.28-1.49l20.64-146.6c.28-.71,.71-1.06,1.28-1.06h58.51c1.13,0,1.56,.5,1.28,1.49l-2.77,20c-.29,.71-.71,1.06-1.28,1.06h-32.98l-3.62,25.75h27.24c1.13,0,1.56,.5,1.28,1.49l-2.77,20c-.29,.71-.71,1.06-1.28,1.06h-27.66l-7.87,55.96h32.56c1.13,0,1.56,.5,1.28,1.49l-2.77,19.79c-.29,.71-.71,1.06-1.28,1.06h-58.51Zm142.56-29.15c.99-.99,1.7-.85,2.13,.43l7.23,18.3c.28,.57,.14,1.06-.43,1.49-4.97,3.97-9.82,6.81-14.57,8.51-4.75,1.7-10.04,2.55-15.85,2.55-15.89,0-27.27-6.7-34.15-20.11-6.88-13.41-8.62-32.24-5.21-56.49,1.7-12.2,4.36-23.01,7.98-32.45,3.62-9.43,8.05-17.45,13.3-24.04,5.24-6.6,11.24-11.6,17.98-15,6.74-3.4,14.15-5.11,22.24-5.11,5.11,0,9.93,.89,14.47,2.66,4.54,1.77,8.65,4.5,12.34,8.19,.56,.43,.56,.92,0,1.49l-12.34,18.51c-.71,.85-1.42,.92-2.13,.21-2.98-3.41-5.85-5.71-8.62-6.92-2.77-1.2-5.43-1.81-7.98-1.81-3.26,0-6.49,1.35-9.68,4.04-3.19,2.7-6.1,6.42-8.72,11.17-2.63,4.75-4.97,10.46-7.02,17.13-2.06,6.67-3.65,13.97-4.79,21.92-1.14,7.95-1.59,15.21-1.38,21.81,.21,6.6,.99,12.31,2.34,17.13,1.35,4.82,3.23,8.55,5.64,11.17,2.41,2.63,5.32,3.94,8.72,3.94,5.81,0,11.98-2.91,18.51-8.72Zm47.02,29.15c-1.14,0-1.56-.5-1.28-1.49l17.66-125.11h-27.87c-1.14,0-1.56-.5-1.28-1.49l2.77-20c.28-.71,.71-1.06,1.28-1.06h83.62c1.13,0,1.56,.5,1.28,1.49l-2.77,20c-.29,.71-.71,1.06-1.28,1.06h-28.73l-17.66,125.54c-.29,.71-.71,1.06-1.28,1.06h-24.47Zm47.24,0c-1.14,0-1.56-.56-1.28-1.7l45.96-146.6c0-.57,.35-.85,1.06-.85h35.96c.85,0,1.28,.43,1.28,1.28l4.47,146.6c0,.85-.43,1.28-1.28,1.28h-24.68c-.85,0-1.28-.43-1.28-1.28l-.21-19.15h-28.3l-5.96,19.58c0,.57-.36,.85-1.06,.85h-24.68Zm59.37-42.77l.64-78.73-21.49,78.73h20.85Zm100.43,13.62c.99-.99,1.7-.85,2.13,.43l7.23,18.3c.28,.57,.14,1.06-.43,1.49-4.97,3.97-9.82,6.81-14.57,8.51-4.75,1.7-10.04,2.55-15.85,2.55-15.89,0-27.27-6.7-34.15-20.11-6.88-13.41-8.62-32.24-5.21-56.49,1.7-12.2,4.36-23.01,7.98-32.45,3.62-9.43,8.05-17.45,13.3-24.04,5.24-6.6,11.24-11.6,17.98-15,6.74-3.4,14.15-5.11,22.24-5.11,5.11,0,9.93,.89,14.47,2.66,4.54,1.77,8.65,4.5,12.34,8.19,.56,.43,.56,.92,0,1.49l-12.34,18.51c-.71,.85-1.42,.92-2.13,.21-2.98-3.41-5.85-5.71-8.62-6.92-2.77-1.2-5.43-1.81-7.98-1.81-3.26,0-6.49,1.35-9.68,4.04-3.19,2.7-6.1,6.42-8.72,11.17-2.63,4.75-4.97,10.46-7.02,17.13-2.06,6.67-3.65,13.97-4.79,21.92-1.14,7.95-1.59,15.21-1.38,21.81,.21,6.6,.99,12.31,2.34,17.13,1.35,4.82,3.23,8.55,5.64,11.17,2.41,2.63,5.32,3.94,8.72,3.94,5.81,0,11.98-2.91,18.51-8.72Zm28.3,29.15c-1.14,0-1.56-.5-1.28-1.49l20.64-146.6c.28-.71,.71-1.06,1.28-1.06h24.47c1.13,0,1.56,.5,1.28,1.49l-17.66,125.32h32.56c1.13,0,1.56,.5,1.28,1.49l-2.77,19.79c-.29,.71-.71,1.06-1.28,1.06h-58.51Zm79.37,0c-1.14,0-1.56-.5-1.28-1.49l20.64-146.6c.28-.71,.71-1.06,1.28-1.06h58.51c1.13,0,1.56,.5,1.28,1.49l-2.77,20c-.29,.71-.71,1.06-1.28,1.06h-32.98l-3.62,25.75h27.24c1.13,0,1.56,.5,1.28,1.49l-2.77,20c-.29,.71-.71,1.06-1.28,1.06h-27.66l-7.87,55.96h32.56c1.13,0,1.56,.5,1.28,1.49l-2.77,19.79c-.29,.71-.71,1.06-1.28,1.06h-58.51Z"/></g></svg>