<?xml version="1.0" encoding="utf-8"?>
<!-- Generator: Adobe Illustrator 27.9.0, SVG Export Plug-In . SVG Version: 6.00 Build 0)  -->
<svg version="1.1" id="Layer_1" xmlns="http://www.w3.org/2000/svg" xmlns:xlink="http://www.w3.org/1999/xlink" x="0px" y="0px"
	 viewBox="0 0 469.1 446.3" style="enable-background:new 0 0 469.1 446.3;" xml:space="preserve">
<g>
	<path d="M436.9,397.1c0.1-0.5,0.4-0.9,0.6-1.4c0,0.3,0,0.7,0,1c0-0.4,0.1-0.8,0.1-1.1c0-114.9,0-229.9,0-344.8
		c0-0.1-0.1-0.1-0.1-0.2c0,0.1,0,0.2,0,0.4c-0.1-0.3-0.1-0.5-0.2-0.8c0-0.1-0.1-0.2-0.1-0.3c-1.4-5.6-3.1-11.2-6.7-16
		c-7.7-10.2-18.1-14.8-30.7-14.8c-30.9,0-61.7,0-92.6,0c-80.1,0-160.1,0-240.2,0c-15.6,0-27.4,6.4-34.6,20.5
		c-2.7,5.2-3.6,10.8-3.6,16.6c0,111.5,0,222.9,0,334.4c0,19.3,12.1,33.5,30.9,36.7c0.3,0.1,0.5,0.2,0.7,0.4c0.1,0,0.3,0,0.4,0
		c114.9,0,229.9,0,344.8,0c6.8-1.6,13.4-3.7,18.8-8.4C431.3,413.4,435.6,406.1,436.9,397.1z M52.8,56.9c0-9.3,4.6-14,13.9-14
		c74.2,0,148.5,0,222.7-0.1c3,0,3.7,0.6,3.7,3.7c-0.1,21.6-0.1,43.1,0,64.7c0,3-0.7,3.7-3.7,3.7c-38.8-0.1-77.6-0.1-116.5-0.1
		c-38.7,0-77.4,0-116.1,0.1c-3.3,0-4.1-0.8-4.1-4.1C52.9,92.8,52.8,74.9,52.8,56.9z M413.5,389.4c0,10.1-4.4,14.5-14.6,14.5
		c-110.5,0-221,0-331.5,0c-10.2,0-14.6-4.4-14.6-14.5c0-82.2,0-164.4-0.1-246.6c0-3.5,1-4,4.2-4c58.8,0,117.5,0,176.3,0
		s117.6,0,176.3-0.1c3.3,0,4.1,0.7,4.1,4.1C413.5,225,413.5,307.2,413.5,389.4z M410.7,114.9c-15.3-0.1-30.4-0.1-45.6-0.1
		c-14.9,0-29.8-0.1-44.7,0.1c-2.8,0-3.5-0.6-3.5-3.5c0.1-21.7,0.1-43.4,0-65.1c0-2.8,0.7-3.5,3.5-3.5C347,43,373.6,43,400.2,43
		c8.5,0,13.3,4.8,13.4,13.3c0,18.5,0,37,0.1,55.5C413.7,114.2,413.2,114.9,410.7,114.9z"/>
	<path d="M353,187.1c-16-0.1-31.9-0.1-47.9,0c-6.8,0.1-11.9,5.5-11.9,12c0.1,6.5,5.2,11.6,12,11.9c2.3,0.1,4.6,0,7.3,0
		c-10.4,31.2-20.7,61.9-30.9,92.6c-0.3,0-0.5,0-0.8,0c-10.3-30.7-20.5-61.5-30.9-92.6c3,0,5.4,0.1,7.8,0c6.6-0.4,11.5-5.6,11.5-12
		c-0.1-6.4-5-11.8-11.6-11.9c-16.2-0.2-32.5-0.2-48.7,0c-6.6,0.1-11.6,5.5-11.6,11.9c0,6.4,4.9,11.6,11.5,12c2.5,0.1,4.9,0,7.8,0
		c-10.4,31.2-20.6,61.9-30.9,92.7c-0.3-0.1-0.5-0.1-0.8-0.2c-10.2-30.7-20.5-61.5-30.8-92.5c2.9,0,5.3,0.1,7.7,0
		c6.6-0.4,11.6-5.5,11.6-11.9c0-6.3-4.9-11.8-11.5-11.9c-16.2-0.2-32.5-0.2-48.7,0c-6.5,0.1-11.5,5.4-11.6,11.8
		c-0.1,6.6,5,11.8,11.8,12.1c3.8,0.2,7.5,0.3,11.2,0c3.4-0.2,4.7,1,5.8,4.2c14.2,43.1,28.6,86.1,42.9,129.1c0.8,2.3,1.6,4.6,3.2,6.4
		c6.5,7.5,17.4,4.6,20.8-5.6c5.9-17.6,11.7-35.2,17.6-52.8c5.9-17.9,11.9-35.9,18.3-55c0.8,2.4,1.2,3.6,1.9,4.4
		c11.4,34.2,22.8,68.4,34.2,102.6c2.3,6.8,6.5,10.3,12.2,10.2c5.6-0.1,9.6-3.5,11.8-10.1c3.4-10.3,6.9-20.6,10.3-30.9
		c11-33.1,22.1-66.2,33-99.3c0.8-2.5,1.9-3.6,4.7-3.4c3.9,0.4,7.7,0.2,11.6,0.1c7.1-0.2,12.3-5.4,12.2-12.1
		C365,192.4,359.9,187.2,353,187.1z"/>
	<path d="M161.2,90.9c8.1,0.2,16.2,0.2,24.3,0c6.8-0.2,11.8-5.5,11.8-12c-0.1-6.5-5.2-11.7-12-11.9c-3.9-0.1-7.9,0-11.9,0
		s-8-0.1-12,0.1c-6.8,0.2-11.9,5.3-12,11.8C149.4,85.4,154.4,90.7,161.2,90.9z"/>
	<path d="M232.9,90.9c8.1,0.2,16.2,0.2,24.3,0c6.8-0.2,11.8-5.5,11.8-12s-5.1-11.7-11.9-11.9c-3.9-0.1-7.9,0-11.9,0
		c-4.1,0-8.2-0.2-12.5,0.1c-6.5,0.3-11.5,5.5-11.6,11.8C221.1,85.4,226.1,90.7,232.9,90.9z"/>
	<path d="M89.2,90.9c8.1,0.2,16.2,0.2,24.3,0c6.8-0.2,11.8-5.5,11.8-12c-0.1-6.5-5.2-11.7-12-11.9c-3.9-0.1-7.9,0-11.9,0
		s-8-0.1-12,0.1c-6.8,0.2-11.9,5.3-12,11.8C77.4,85.4,82.4,90.7,89.2,90.9z"/>
</g>
</svg>
