<?xml version="1.0" encoding="utf-8"?>
<!-- Generator: Adobe Illustrator 27.0.0, SVG Export Plug-In . SVG Version: 6.00 Build 0)  -->
<svg version="1.1" id="Layer_1" xmlns="http://www.w3.org/2000/svg" xmlns:xlink="http://www.w3.org/1999/xlink" x="0px" y="0px"
	 viewBox="0 0 469.1 446.3" style="enable-background:new 0 0 469.1 446.3;" xml:space="preserve">
<style type="text/css">
	.st0{fill:#FEFEFE;}
	.st1{fill:#FDFDFD;}
</style>
<g>
	<path d="M405.6,427.7c-114.9,0-229.9,0-344.8,0c-6-0.5-11.8-1.7-16.8-5.3c-10.6-7.5-15.6-17.6-15.5-30.6c0.1-76.5,0-152.9,0-229.4
		c0-35.9,0-71.8,0-107.7c0-7.6,1.5-14.8,6.1-21.1c7.4-10.2,17.4-15.1,30-15.1c36.2,0.1,72.3,0,108.5,0c76.1,0,152.1,0,228.2,0
		c8.1,0,15.6,1.4,22.1,6.4c8.2,6.3,13.7,14,13.8,24.8c0,0.4,0.2,0.8,0.4,1.1c0,114.9,0,229.9,0,344.8c-0.7,11-5.7,19.6-14.6,26
		C417.8,425.6,411.9,427.3,405.6,427.7z"/>
	<path class="st0" d="M437.5,51c-1.5-6-3.1-12-7-17.1c-7.7-10.2-18.1-14.8-30.7-14.8c-30.9,0-61.7,0-92.6,0c-80.1,0-160.1,0-240.2,0
		c-15.6,0-27.4,6.4-34.6,20.5c-2.7,5.2-3.6,10.8-3.6,16.6c0,111.5,0,222.9,0,334.4c0,19.3,12.1,33.5,30.9,36.7
		c0.4,0.1,0.7,0.4,1,0.5c-10.9,0-21.8,0-32.7,0c0-135.5,0-271-0.1-406.5c0-2.5,0.6-3.1,3.1-3.1c134.6,0.1,269.1,0.1,403.7,0
		c2.4,0,2.9,0.5,2.8,2.9C437.4,31,437.5,41,437.5,51z"/>
	<path class="st1" d="M405.6,427.7c6.8-1.6,13.4-3.7,18.8-8.4c6.9-5.9,11.2-13.2,12.5-22.2c0.1-0.5,0.4-0.9,0.6-1.4
		c0,10-0.1,20,0.1,29.9c0,1.7-0.3,2.1-2,2C425.6,427.7,415.6,427.7,405.6,427.7z"/>
	<path class="st0" d="M233.2,138.8c58.8,0,117.6,0,176.3-0.1c3.3,0,4.1,0.7,4.1,4.1c-0.1,82.2-0.1,164.4-0.1,246.6
		c0,10.1-4.4,14.5-14.6,14.5c-110.5,0-221,0-331.5,0c-10.2,0-14.6-4.4-14.6-14.5c0-82.2,0-164.4-0.1-246.6c0-3.5,1-4,4.2-4
		C115.7,138.8,174.4,138.8,233.2,138.8z"/>
	<path class="st0" d="M172.9,114.8c-38.7,0-77.4,0-116.1,0.1c-3.3,0-4.1-0.8-4.1-4.1c0.2-18,0.1-35.9,0.1-53.9c0-9.3,4.6-14,13.9-14
		c74.2,0,148.5,0,222.7-0.1c3,0,3.7,0.6,3.7,3.7c-0.1,21.6-0.1,43.1,0,64.7c0,3-0.7,3.7-3.7,3.7
		C250.6,114.8,211.8,114.8,172.9,114.8z"/>
	<path class="st0" d="M365.1,114.8c-14.9,0-29.8-0.1-44.7,0.1c-2.8,0-3.5-0.6-3.5-3.5c0.1-21.7,0.1-43.4,0-65.1
		c0-2.8,0.7-3.5,3.5-3.5C347,43,373.6,43,400.2,43c8.5,0,13.3,4.8,13.4,13.3c0,18.5,0,37,0.1,55.5c0,2.4-0.5,3.1-3,3.1
		C395.4,114.8,380.3,114.8,365.1,114.8z"/>
	<path d="M233.2,237.4c-6.4,19.1-12.4,37.1-18.3,55c-5.9,17.6-11.7,35.2-17.6,52.8c-3.4,10.2-14.3,13.1-20.8,5.6
		c-1.6-1.8-2.4-4.1-3.2-6.4c-14.3-43-28.7-86-42.9-129.1c-1.1-3.2-2.4-4.4-5.8-4.2c-3.7,0.3-7.4,0.2-11.2,0
		c-6.8-0.3-11.9-5.5-11.8-12.1c0.1-6.4,5.1-11.7,11.6-11.8c16.2-0.2,32.5-0.2,48.7,0c6.6,0.1,11.5,5.6,11.5,11.9
		c0,6.4-5,11.5-11.6,11.9c-2.4,0.1-4.8,0-7.7,0c10.3,31,20.6,61.8,30.8,92.5c0.3,0.1,0.5,0.1,0.8,0.2c10.3-30.8,20.5-61.5,30.9-92.7
		c-2.9,0-5.3,0.1-7.8,0c-6.6-0.4-11.5-5.6-11.5-12c0-6.4,5-11.8,11.6-11.9c16.2-0.2,32.5-0.2,48.7,0c6.6,0.1,11.5,5.5,11.6,11.9
		c0,6.4-4.9,11.6-11.5,12c-2.4,0.1-4.8,0-7.8,0c10.4,31.1,20.6,61.9,30.9,92.6c0.3,0,0.5,0,0.8,0c10.2-30.7,20.5-61.4,30.9-92.6
		c-2.7,0-5,0.1-7.3,0c-6.8-0.3-11.9-5.4-12-11.9c0-6.5,5.1-11.9,11.9-12c16-0.1,31.9-0.1,47.9,0c6.9,0.1,12,5.3,12.1,11.8
		c0.1,6.7-5.1,11.9-12.2,12.1c-3.9,0.1-7.7,0.3-11.6-0.1c-2.8-0.2-3.9,0.9-4.7,3.4c-10.9,33.1-22,66.2-33,99.3
		c-3.4,10.3-6.9,20.6-10.3,30.9c-2.2,6.6-6.2,10-11.8,10.1c-5.7,0.1-9.9-3.4-12.2-10.2c-11.4-34.2-22.8-68.4-34.2-102.6
		C234.4,241,234,239.8,233.2,237.4z"/>
	<path d="M173.4,67c4,0,8-0.1,11.9,0c6.8,0.2,11.9,5.4,12,11.9c0,6.5-5,11.8-11.8,12c-8.1,0.2-16.2,0.2-24.3,0
		c-6.8-0.2-11.8-5.5-11.8-12c0.1-6.5,5.2-11.6,12-11.8C165.4,66.9,169.4,67,173.4,67z"/>
	<path d="M245.2,67c4,0,8-0.1,11.9,0c6.8,0.2,11.9,5.4,11.9,11.9c0,6.5-5,11.8-11.8,12c-8.1,0.2-16.2,0.2-24.3,0
		c-6.8-0.2-11.8-5.5-11.8-12c0.1-6.3,5.1-11.5,11.6-11.8C237,66.8,241.1,67,245.2,67C245.2,67,245.2,67,245.2,67z"/>
	<path d="M101.4,67c4,0,8-0.1,11.9,0c6.8,0.2,11.9,5.4,12,11.9c0,6.5-5,11.8-11.8,12c-8.1,0.2-16.2,0.2-24.3,0
		c-6.8-0.2-11.8-5.5-11.8-12c0.1-6.5,5.2-11.6,12-11.8C93.4,66.9,97.4,67,101.4,67z"/>
</g>
</svg>
